<?xml version="1.0" encoding="utf-8"?>
<svg width="286" height="45" viewBox="0 0 286 45" fill="none" xmlns="http://www.w3.org/2000/svg">
  <defs>
    <linearGradient id="gradient_1" gradientUnits="userSpaceOnUse" x1="21.498" y1="0" x2="21.498" y2="30.711">
      <stop offset="0" stop-color="#FFFFFF" />
      <stop offset="1" stop-color="#F0F0F0" />
    </linearGradient>
    <linearGradient id="gradient_2" gradientUnits="userSpaceOnUse" x1="21.498" y1="0" x2="21.498" y2="30.711">
      <stop offset="0" stop-color="#D02F44" />
      <stop offset="1" stop-color="#B12537" />
    </linearGradient>
    <linearGradient id="gradient_3" gradientUnits="userSpaceOnUse" x1="9.213" y1="0" x2="9.213" y2="14.332">
      <stop offset="0" stop-color="#46467F" />
      <stop offset="1" stop-color="#3C3C6D" />
    </linearGradient>
    <linearGradient id="gradient_4" gradientUnits="userSpaceOnUse" x1="7.166" y1="0" x2="7.166" y2="10.237">
      <stop offset="0" stop-color="#FFFFFF" />
      <stop offset="1" stop-color="#F0F0F0" />
    </linearGradient>
    <clipPath id="clip_path_5">
      <rect width="40" height="29" />
    </clipPath>
    <clipPath id="clip_path_6">
      <rect width="152" height="29" />
    </clipPath>
  </defs>
  <g>
    <g transform="translate(192 2)">
      <g transform="translate(0 6.143)">
        <g transform="translate(-0 -0)">
          <path d="M42.9954 0C42.9954 0 0 0 0 0L0 30.711L42.9954 30.711C42.9954 30.711 42.9954 0 42.9954 0Z" fill="url(#gradient_1)" />
          <path d="M0 0C0 0 42.9954 0 42.9954 0L42.9954 2.04739L0 2.04739C0 2.04739 0 0 0 0ZM0 4.09484C0 4.09484 42.9954 4.09484 42.9954 4.09484L42.9954 6.14224L0 6.14224C0 6.14224 0 4.09484 0 4.09484ZM0 8.18948C0 8.18948 42.9954 8.18948 42.9954 8.18948L42.9954 10.2369L0 10.2369C0 10.2369 0 8.18948 0 8.18948ZM0 12.2843C0 12.2843 42.9954 12.2843 42.9954 12.2843L42.9954 14.3317L0 14.3317C0 14.3317 0 12.2843 0 12.2843ZM0 16.3792C0 16.3792 42.9954 16.3792 42.9954 16.3792L42.9954 18.4266L0 18.4266C0 18.4266 0 16.3792 0 16.3792ZM0 20.4739C0 20.4739 42.9954 20.4739 42.9954 20.4739L42.9954 22.5214L0 22.5214C0 22.5214 0 20.4739 0 20.4739ZM0 24.5688C0 24.5688 42.9954 24.5688 42.9954 24.5688L42.9954 26.6161L0 26.6161C0 26.6161 0 24.5688 0 24.5688ZM0 28.6636C0 28.6636 42.9954 28.6636 42.9954 28.6636L42.9954 30.711L0 30.711C0 30.711 0 28.6636 0 28.6636Z" fill="url(#gradient_2)" fill-rule="evenodd" />
          <path d="M18.4267 0C18.4267 0 0 0 0 0L0 14.3318L18.4267 14.3318C18.4267 14.3318 18.4267 0 18.4267 0Z" fill="url(#gradient_3)" />
          <path d="M1.0237 2.04739C0.458331 2.04739 0 1.58906 0 1.02369C0 0.458331 0.458331 0 1.0237 0C1.58908 0 2.04741 0.458331 2.04741 1.02369C2.04741 1.58906 1.58908 2.04739 1.0237 2.04739ZM5.11855 2.04739C4.55317 2.04739 4.09484 1.58906 4.09484 1.02369C4.09484 0.458331 4.55317 0 5.11855 0C5.68391 0 6.14224 0.458331 6.14224 1.02369C6.14224 1.58906 5.68391 2.04739 5.11855 2.04739ZM9.21325 2.04739C8.64788 2.04739 8.18955 1.58906 8.18955 1.02369C8.18955 0.458331 8.64788 0 9.21325 0C9.77863 0 10.237 0.458331 10.237 1.02369C10.237 1.58906 9.77863 2.04739 9.21325 2.04739ZM13.3082 2.04739C12.7428 2.04739 12.2845 1.58906 12.2845 1.02369C12.2845 0.458331 12.7428 0 13.3082 0C13.8735 0 14.3319 0.458331 14.3319 1.02369C14.3319 1.58906 13.8735 2.04739 13.3082 2.04739ZM3.07108 4.09478C2.5057 4.09478 2.04739 3.63647 2.04739 3.07109C2.04739 2.50572 2.5057 2.04739 3.07108 2.04739C3.63645 2.04739 4.09478 2.50572 4.09478 3.07109C4.09478 3.63647 3.63645 4.09478 3.07108 4.09478ZM7.16594 4.09478C6.60056 4.09478 6.14223 3.63647 6.14223 3.07109C6.14223 2.50572 6.60056 2.04739 7.16594 2.04739C7.73131 2.04739 8.18962 2.50572 8.18962 3.07109C8.18962 3.63647 7.73131 4.09478 7.16594 4.09478ZM11.2606 4.09478C10.6953 4.09478 10.2369 3.63647 10.2369 3.07109C10.2369 2.50572 10.6953 2.04739 11.2606 2.04739C11.826 2.04739 12.2843 2.50572 12.2843 3.07109C12.2843 3.63647 11.826 4.09478 11.2606 4.09478ZM13.3082 6.14225C12.7428 6.14225 12.2845 5.68392 12.2845 5.11855C12.2845 4.55317 12.7428 4.09484 13.3082 4.09484C13.8735 4.09484 14.3319 4.55317 14.3319 5.11855C14.3319 5.68392 13.8735 6.14225 13.3082 6.14225ZM9.21325 6.14225C8.64788 6.14225 8.18955 5.68392 8.18955 5.11855C8.18955 4.55317 8.64788 4.09484 9.21325 4.09484C9.77863 4.09484 10.237 4.55317 10.237 5.11855C10.237 5.68392 9.77863 6.14225 9.21325 6.14225ZM5.11855 6.14225C4.55317 6.14225 4.09484 5.68392 4.09484 5.11855C4.09484 4.55317 4.55317 4.09484 5.11855 4.09484C5.68391 4.09484 6.14224 4.55317 6.14224 5.11855C6.14224 5.68392 5.68391 6.14225 5.11855 6.14225ZM1.0237 6.14225C0.458331 6.14225 0 5.68392 0 5.11855C0 4.55317 0.458331 4.09484 1.0237 4.09484C1.58908 4.09484 2.04741 4.55317 2.04741 5.11855C2.04741 5.68392 1.58908 6.14225 1.0237 6.14225ZM3.07108 8.18962C2.5057 8.18962 2.04739 7.73129 2.04739 7.16592C2.04739 6.60055 2.5057 6.14223 3.07108 6.14223C3.63645 6.14223 4.09478 6.60055 4.09478 7.16592C4.09478 7.73129 3.63645 8.18962 3.07108 8.18962ZM7.16594 8.18962C6.60056 8.18962 6.14223 7.73129 6.14223 7.16592C6.14223 6.60055 6.60056 6.14223 7.16594 6.14223C7.73131 6.14223 8.18962 6.60055 8.18962 7.16592C8.18962 7.73129 7.73131 8.18962 7.16594 8.18962ZM11.2606 8.18962C10.6953 8.18962 10.2369 7.73129 10.2369 7.16592C10.2369 6.60055 10.6953 6.14223 11.2606 6.14223C11.826 6.14223 12.2843 6.60055 12.2843 7.16592C12.2843 7.73129 11.826 8.18962 11.2606 8.18962ZM13.3082 10.2369C12.7428 10.2369 12.2845 9.77856 12.2845 9.21319C12.2845 8.64781 12.7428 8.18948 13.3082 8.18948C13.8735 8.18948 14.3319 8.64781 14.3319 9.21319C14.3319 9.77856 13.8735 10.2369 13.3082 10.2369ZM9.21325 10.2369C8.64788 10.2369 8.18955 9.77856 8.18955 9.21319C8.18955 8.64781 8.64788 8.18948 9.21325 8.18948C9.77863 8.18948 10.237 8.64781 10.237 9.21319C10.237 9.77856 9.77863 10.2369 9.21325 10.2369ZM5.11855 10.2369C4.55317 10.2369 4.09484 9.77856 4.09484 9.21319C4.09484 8.64781 4.55317 8.18948 5.11855 8.18948C5.68391 8.18948 6.14224 8.64781 6.14224 9.21319C6.14224 9.77856 5.68391 10.2369 5.11855 10.2369ZM1.0237 10.2369C0.458331 10.2369 0 9.77856 0 9.21319C0 8.64781 0.458331 8.18948 1.0237 8.18948C1.58908 8.18948 2.04741 8.64781 2.04741 9.21319C2.04741 9.77856 1.58908 10.2369 1.0237 10.2369Z" fill="url(#gradient_4)" fill-rule="evenodd" transform="translate(2.048 2.047)" />
        </g>
      </g>
      <path d="M12.7075 5.45654L12.7075 18.6646Q12.7075 20.9106 12.561 21.8201Q12.4146 22.7295 11.6943 23.6877Q10.9741 24.646 9.79614 25.1404Q8.61816 25.6348 7.01904 25.6348Q5.24902 25.6348 3.89404 25.0488Q2.53906 24.4629 1.86768 23.5229Q1.19629 22.583 1.07422 21.5393Q0.952148 20.4956 0.952148 17.1509L0.952148 5.45654L6.09131 5.45654L6.09131 20.2759Q6.09131 21.5698 6.23169 21.9299Q6.37207 22.29 6.79932 22.29Q7.2876 22.29 7.42798 21.8933Q7.56836 21.4966 7.56836 20.0195L7.56836 5.45654L12.7075 5.45654ZM25.5859 11.438L20.813 11.438L20.813 9.97314Q20.813 8.94775 20.6299 8.66699Q20.4468 8.38623 20.0195 8.38623Q19.5557 8.38623 19.3176 8.76465Q19.0796 9.14307 19.0796 9.91211Q19.0796 10.9009 19.3481 11.4014Q19.6045 11.9019 20.8008 12.6099Q24.231 14.6484 25.1221 15.9546Q26.0132 17.2607 26.0132 20.166Q26.0132 22.2778 25.5188 23.2788Q25.0244 24.2798 23.6084 24.9573Q22.1924 25.6348 20.3125 25.6348Q18.2495 25.6348 16.7908 24.8535Q15.332 24.0723 14.8804 22.8638Q14.4287 21.6553 14.4287 19.4336L14.4287 18.1396L19.2017 18.1396L19.2017 20.5444Q19.2017 21.6553 19.4031 21.9727Q19.6045 22.29 20.1172 22.29Q20.6299 22.29 20.8801 21.8872Q21.1304 21.4844 21.1304 20.6909Q21.1304 18.9453 20.6543 18.4082Q20.166 17.8711 18.2495 16.6138Q16.333 15.3442 15.7104 14.7705Q15.0879 14.1968 14.679 13.1836Q14.27 12.1704 14.27 10.5957Q14.27 8.3252 14.8499 7.27539Q15.4297 6.22559 16.7236 5.63354Q18.0176 5.0415 19.8486 5.0415Q21.8506 5.0415 23.2605 5.68848Q24.6704 6.33545 25.1282 7.31812Q25.5859 8.30078 25.5859 10.6567L25.5859 11.438ZM36.499 5.45654L39.4409 25.2197L34.1797 25.2197L33.9233 21.6675L32.0801 21.6675L31.7749 25.2197L26.4526 25.2197L29.0649 5.45654L36.499 5.45654ZM33.7769 18.1641Q33.3862 14.8071 32.9956 9.87549Q32.2144 15.5396 32.019 18.1641L33.7769 18.1641Z" fill="#000000" fill-opacity="0.851" clip-path="url(#clip_path_5)" transform="translate(1 6)" />
    </g>
    <path d="M1.02539 5.45654L6.20117 5.45654Q8.30078 5.45654 9.42993 5.78613Q10.5591 6.11572 11.1267 6.73828Q11.6943 7.36084 11.8958 8.24585Q12.0972 9.13086 12.0972 10.9863L12.0972 12.7075Q12.0972 14.5996 11.7065 15.4663Q11.3159 16.333 10.2722 16.7969Q9.22852 17.2607 7.54395 17.2607L6.16455 17.2607L6.16455 25.2197L1.02539 25.2197L1.02539 5.45654ZM6.16455 8.83789L6.16455 13.8672Q6.38428 13.8794 6.54297 13.8794Q7.25098 13.8794 7.52563 13.5315Q7.80029 13.1836 7.80029 12.085L7.80029 10.4614Q7.80029 9.44824 7.48291 9.14307Q7.16553 8.83789 6.16455 8.83789ZM18.3594 9.021L18.1641 11.145Q19.2383 8.8623 21.2769 8.72803L21.2769 14.4287Q19.9219 14.4287 19.2871 14.7949Q18.6523 15.1611 18.5059 15.8142Q18.3594 16.4673 18.3594 18.8232L18.3594 25.2197L13.4277 25.2197L13.4277 9.021L18.3594 9.021ZM33.5327 14.7095L33.5327 18.6768Q33.5327 20.8618 33.313 21.8811Q33.0933 22.9004 32.373 23.7854Q31.6528 24.6704 30.5237 25.0916Q29.3945 25.5127 27.9297 25.5127Q26.2939 25.5127 25.1587 25.1526Q24.0234 24.7925 23.3948 24.0662Q22.7661 23.3398 22.4976 22.3083Q22.229 21.2769 22.229 19.2139L22.229 15.0635Q22.229 12.8052 22.7173 11.5356Q23.2056 10.2661 24.4751 9.49707Q25.7446 8.72803 27.7222 8.72803Q29.3823 8.72803 30.5725 9.22241Q31.7627 9.7168 32.4097 10.5103Q33.0566 11.3037 33.2947 12.146Q33.5327 12.9883 33.5327 14.7095ZM28.6011 13.4888Q28.6011 12.2437 28.4668 11.9202Q28.3325 11.5967 27.8931 11.5967Q27.4536 11.5967 27.3071 11.9202Q27.1606 12.2437 27.1606 13.4888L27.1606 20.8008Q27.1606 21.9482 27.3071 22.2961Q27.4536 22.644 27.8809 22.644Q28.3203 22.644 28.4607 22.3267Q28.6011 22.0093 28.6011 20.9595L28.6011 13.4888ZM44.1772 5.45654L47.1191 25.2197L41.8579 25.2197L41.6016 21.6675L39.7583 21.6675L39.4531 25.2197L34.1309 25.2197L36.7432 5.45654L44.1772 5.45654ZM41.4551 18.1641Q41.0645 14.8071 40.6738 9.87549Q39.8926 15.5396 39.6973 18.1641L41.4551 18.1641ZM58.7524 15.1367L54.1016 15.1367L54.1016 13.269Q54.1016 12.2925 53.9429 11.9446Q53.7842 11.5967 53.3569 11.5967Q52.9297 11.5967 52.7832 11.9019Q52.6367 12.207 52.6367 13.269L52.6367 20.9106Q52.6367 21.7773 52.8564 22.2107Q53.0762 22.644 53.5034 22.644Q54.0039 22.644 54.1809 22.1924Q54.3579 21.7407 54.3579 20.4834L54.3579 18.5547L58.7524 18.5547Q58.7402 20.4956 58.6121 21.4661Q58.4839 22.4365 57.7942 23.4558Q57.1045 24.4751 55.9937 24.9939Q54.8828 25.5127 53.2471 25.5127Q51.1597 25.5127 49.939 24.7986Q48.7183 24.0845 48.2117 22.7966Q47.7051 21.5088 47.7051 19.1406L47.7051 14.5386Q47.7051 12.4756 48.1201 11.4258Q48.5352 10.376 49.8901 9.552Q51.2451 8.72803 53.186 8.72803Q55.1147 8.72803 56.4819 9.5459Q57.8491 10.3638 58.3008 11.6089Q58.7524 12.854 58.7524 15.1367ZM71.1182 15.1367L66.4673 15.1367L66.4673 13.269Q66.4673 12.2925 66.3086 11.9446Q66.1499 11.5967 65.7227 11.5967Q65.2954 11.5967 65.1489 11.9019Q65.0024 12.207 65.0024 13.269L65.0024 20.9106Q65.0024 21.7773 65.2222 22.2107Q65.4419 22.644 65.8691 22.644Q66.3696 22.644 66.5466 22.1924Q66.7236 21.7407 66.7236 20.4834L66.7236 18.5547L71.1182 18.5547Q71.106 20.4956 70.9778 21.4661Q70.8496 22.4365 70.1599 23.4558Q69.4702 24.4751 68.3594 24.9939Q67.2485 25.5127 65.6128 25.5127Q63.5254 25.5127 62.3047 24.7986Q61.084 24.0845 60.5774 22.7966Q60.0708 21.5088 60.0708 19.1406L60.0708 14.5386Q60.0708 12.4756 60.4858 11.4258Q60.9009 10.376 62.2559 9.552Q63.6108 8.72803 65.5518 8.72803Q67.4805 8.72803 68.8477 9.5459Q70.2148 10.3638 70.6665 11.6089Q71.1182 12.854 71.1182 15.1367ZM83.7402 14.7095L83.7402 18.6768Q83.7402 20.8618 83.5205 21.8811Q83.3008 22.9004 82.5806 23.7854Q81.8604 24.6704 80.7312 25.0916Q79.6021 25.5127 78.1372 25.5127Q76.5015 25.5127 75.3662 25.1526Q74.231 24.7925 73.6023 24.0662Q72.9736 23.3398 72.7051 22.3083Q72.4365 21.2769 72.4365 19.2139L72.4365 15.0635Q72.4365 12.8052 72.9248 11.5356Q73.4131 10.2661 74.6826 9.49707Q75.9521 8.72803 77.9297 8.72803Q79.5898 8.72803 80.78 9.22241Q81.9702 9.7168 82.6172 10.5103Q83.2642 11.3037 83.5022 12.146Q83.7402 12.9883 83.7402 14.7095ZM78.8086 13.4888Q78.8086 12.2437 78.6743 11.9202Q78.54 11.5967 78.1006 11.5967Q77.6611 11.5967 77.5146 11.9202Q77.3682 12.2437 77.3682 13.4888L77.3682 20.8008Q77.3682 21.9482 77.5146 22.2961Q77.6611 22.644 78.0884 22.644Q78.5278 22.644 78.6682 22.3267Q78.8086 22.0093 78.8086 20.9595L78.8086 13.4888ZM96.6553 9.021L96.6553 25.2197L91.6382 25.2197L91.7236 23.877Q91.2109 24.6948 90.4602 25.1038Q89.7095 25.5127 88.7329 25.5127Q87.6221 25.5127 86.8896 25.1221Q86.1572 24.7314 85.8093 24.0845Q85.4614 23.4375 85.376 22.7356Q85.2905 22.0337 85.2905 19.9463L85.2905 9.021L90.2222 9.021L90.2222 20.0439Q90.2222 21.936 90.3381 22.29Q90.4541 22.644 90.9668 22.644Q91.5161 22.644 91.6199 22.2778Q91.7236 21.9116 91.7236 19.9219L91.7236 9.021L96.6553 9.021ZM103.442 9.021L103.357 10.5103Q103.894 9.61914 104.669 9.17358Q105.444 8.72803 106.458 8.72803Q107.727 8.72803 108.533 9.32617Q109.338 9.92432 109.57 10.8337Q109.802 11.7432 109.802 13.8672L109.802 25.2197L104.871 25.2197L104.871 14.0015Q104.871 12.3291 104.761 11.9629Q104.651 11.5967 104.15 11.5967Q103.625 11.5967 103.491 12.0178Q103.357 12.439 103.357 14.27L103.357 25.2197L98.4253 25.2197L98.4253 9.021L103.442 9.021ZM116.699 6.86035L116.699 9.41162L118.03 9.41162L118.03 11.9751L116.699 11.9751L116.699 20.6421Q116.699 22.2412 116.864 22.4243Q117.029 22.6074 118.237 22.6074L118.237 25.2197L116.248 25.2197Q114.563 25.2197 113.843 25.0793Q113.123 24.939 112.573 24.4324Q112.024 23.9258 111.89 23.2727Q111.755 22.6196 111.755 20.2026L111.755 11.9751L110.693 11.9751L110.693 9.41162L111.755 9.41162L111.755 6.86035L116.699 6.86035ZM124.194 5.45654L124.194 8.03223L119.116 8.03223L119.116 5.45654L124.194 5.45654ZM124.194 9.021L124.194 25.2197L119.116 25.2197L119.116 9.021L124.194 9.021ZM130.981 9.021L130.896 10.5103Q131.433 9.61914 132.208 9.17358Q132.983 8.72803 133.997 8.72803Q135.266 8.72803 136.072 9.32617Q136.877 9.92432 137.109 10.8337Q137.341 11.7432 137.341 13.8672L137.341 25.2197L132.41 25.2197L132.41 14.0015Q132.41 12.3291 132.3 11.9629Q132.19 11.5967 131.689 11.5967Q131.165 11.5967 131.03 12.0178Q130.896 12.439 130.896 14.27L130.896 25.2197L125.964 25.2197L125.964 9.021L130.981 9.021ZM150.244 9.021L150.244 21.4966Q150.244 24.0234 150.128 24.762Q150.012 25.5005 149.304 26.3245Q148.596 27.1484 147.333 27.5818Q146.069 28.0151 144.153 28.0151Q141.797 28.0151 140.369 27.2156Q138.94 26.416 138.892 24.0723L143.677 24.0723Q143.677 25.1465 144.458 25.1465Q145.02 25.1465 145.203 24.8169Q145.386 24.4873 145.386 23.4375L145.386 22.2168Q144.751 22.7905 144.049 23.0835Q143.347 23.3765 142.578 23.3765Q141.248 23.3765 140.387 22.8394Q139.526 22.3022 139.209 21.4294Q138.892 20.5566 138.892 18.9453L138.892 13.0615Q138.892 10.7544 139.722 9.74121Q140.552 8.72803 142.249 8.72803Q143.176 8.72803 143.939 9.10645Q144.702 9.48486 145.3 10.2417L145.654 9.021L150.244 9.021ZM145.3 13.3179Q145.3 12.207 145.172 11.9019Q145.044 11.5967 144.604 11.5967Q144.177 11.5967 144 11.9446Q143.823 12.2925 143.823 13.3179L143.823 18.7622Q143.823 19.8486 143.958 20.1721Q144.092 20.4956 144.519 20.4956Q145.007 20.4956 145.154 20.105Q145.3 19.7144 145.3 18.335L145.3 13.3179Z" fill="#011244" clip-path="url(#clip_path_6)" transform="translate(38 9)" />
    <g transform="translate(241 0)">
      <path d="M15.0313 0C15.0313 4.15081 11.6664 7.5157 7.5157 7.5157C3.36498 7.5157 0 4.15081 0 0C0 0 15.0313 0 15.0313 0C15.0313 0 15.0313 0 15.0313 0Z" fill="#FFDC64" transform="translate(0.705 25.506)" />
      <path d="M5.2621 0.586758C5.24355 0.26745 5.4457 0 5.68652 0C5.68652 0 0 0 0 0C0 4.15081 3.36489 7.5157 7.51561 7.5157C8.18385 7.5157 8.82914 7.42184 9.44596 7.25818C7.16546 6.45354 5.44913 3.80795 5.2621 0.586758C5.2621 0.586758 5.2621 0.586758 5.2621 0.586758Z" fill="#FFC350" transform="translate(0.705 25.506)" />
      <path d="M15.0313 0C15.0313 4.15081 11.6664 7.5157 7.5157 7.5157C3.36498 7.5157 0 4.15081 0 0C0 0 15.0313 0 15.0313 0C15.0313 0 15.0313 0 15.0313 0Z" fill="#FFDC64" transform="translate(29.264 25.506)" />
      <g transform="translate(20.997 5.214)">
        <path d="M5.2621 0.586758C5.24356 0.26745 5.4457 0 5.68652 0C5.68652 0 0 0 0 0C0 4.15081 3.36489 7.5157 7.51561 7.5157C8.18385 7.5157 8.82914 7.42184 9.44596 7.25818C7.16555 6.45354 5.44913 3.80795 5.2621 0.586758C5.2621 0.586758 5.2621 0.586758 5.2621 0.586758Z" fill="#FFC350" transform="translate(8.267 20.292)" />
        <rect width="3.006" height="34.572" fill="#FFC350" fill-rule="evenodd" />
      </g>
      <g transform="translate(12.73 2.208)">
        <path d="M0 2.25466C0 1.00944 1.00944 0 2.25466 0C3.49987 0 4.50932 1.00944 4.50932 2.25466C4.50932 3.49987 3.49987 4.50932 2.25466 4.50932C1.00944 4.50932 0 3.49987 0 2.25466Z" fill="#FFDC64" fill-rule="evenodd" transform="translate(7.516 0)" />
        <path d="M18.0376 3.00621C18.0376 3.00621 1.50311 3.00621 1.50311 3.00621C0.672891 3.00621 0 2.33332 0 1.5031C0 1.5031 0 1.5031 0 1.5031C0 0.67289 0.672891 0 1.50311 0C1.50311 0 18.0375 0 18.0375 0C18.8678 0 19.5406 0.67289 19.5406 1.5031C19.5406 1.5031 19.5406 1.5031 19.5406 1.5031C19.5407 2.33332 18.8677 3.00621 18.0376 3.00621C18.0376 3.00621 18.0376 3.00621 18.0376 3.00621Z" fill="#FFDC64" transform="translate(0 37.578)" />
      </g>
      <path d="M6.76406 1.5031C6.76406 0.67289 7.43713 0 8.26717 0C8.26717 0 1.50311 0 1.50311 0C0.672978 0 0 0.67289 0 1.5031C0 2.33323 0.673067 3.00621 1.50311 3.00621C1.50311 3.00621 8.26717 3.00621 8.26717 3.00621C7.43713 3.00621 6.76406 2.33314 6.76406 1.5031C6.76406 1.5031 6.76406 1.5031 6.76406 1.5031Z" fill="#FFC350" transform="translate(12.73 39.786)" />
      <path d="M44.9525 23.7503L44.953 23.7502C44.953 23.7502 37.7239 4.95448 37.7239 4.95448C38.4702 4.59984 38.9875 3.83898 38.9875 2.95928C38.9875 2.57019 38.6721 2.25466 38.2829 2.25466C37.8938 2.25466 37.5783 2.5701 37.5783 2.95928C37.5783 3.39961 37.22 3.75785 36.7797 3.75785C36.4794 3.75785 36.2072 3.59183 36.0693 3.32464C35.7233 2.65474 35.1011 2.25466 34.4049 2.25466C34.4049 2.25466 25.3738 2.25466 25.3738 2.25466C25.0568 0.962051 23.8888 0 22.4998 0C21.1108 0 19.9431 0.962051 19.626 2.25466C19.626 2.25466 10.5948 2.25466 10.5948 2.25466C9.89851 2.25466 9.27633 2.65465 8.93039 3.32464C8.79258 3.59183 8.52038 3.75785 8.22015 3.75785C7.77981 3.75785 7.42157 3.39961 7.42157 2.95928C7.42157 2.57019 7.10613 2.25466 6.71695 2.25466C6.32777 2.25466 6.01233 2.5701 6.01233 2.95928C6.01233 3.83898 6.52957 4.59984 7.27594 4.95448C7.27594 4.95448 0.0469336 23.7502 0.0469336 23.7502C0.0469336 23.7502 0.0474609 23.7503 0.0474609 23.7503C0.0173145 23.8289 0 23.9139 0 24.0031C0 28.5358 3.68754 32.2233 8.22023 32.2233C12.7529 32.2233 16.4405 28.5358 16.4405 24.0031C16.4405 23.914 16.4232 23.8289 16.3929 23.7504C16.3929 23.7504 16.3934 23.7502 16.3934 23.7502C16.3934 23.7502 9.16462 4.95483 9.16462 4.95483C9.59458 4.75172 9.95528 4.41185 10.1828 3.97107C10.22 3.89892 10.3598 3.66381 10.595 3.66381C10.595 3.66381 19.6262 3.66381 19.6262 3.66381C19.7431 4.14035 19.9755 4.57198 20.2925 4.92697C20.2925 4.92697 20.2925 37.5783 20.2925 37.5783C20.2925 37.5783 14.2329 37.5783 14.2329 37.5783C13.0155 37.5783 12.0252 38.5686 12.0252 39.786C12.0252 41.0033 13.0155 41.9937 14.2329 41.9937C14.2329 41.9937 30.7673 41.9937 30.7673 41.9937C31.9847 41.9937 32.9751 41.0033 32.9751 39.786C32.9751 38.5686 31.9846 37.5783 30.7673 37.5783C30.7673 37.5783 24.7077 37.5783 24.7077 37.5783C24.7077 37.5783 24.7077 4.92697 24.7077 4.92697C25.0245 4.57198 25.257 4.14035 25.3738 3.66381C25.3738 3.66381 34.4051 3.66381 34.4051 3.66381C34.6403 3.66381 34.7801 3.89892 34.8173 3.97108C35.0448 4.41176 35.4054 4.75181 35.8355 4.95483C35.8355 4.95483 28.6065 23.7501 28.6065 23.7501C28.6065 23.7501 28.607 23.7502 28.607 23.7502C28.5768 23.8288 28.5594 23.9138 28.5594 24.0029C28.5594 28.5356 32.247 32.2232 36.7797 32.2232C41.3124 32.2232 45 28.5358 45 24.0031C45 23.9139 44.9827 23.8289 44.9525 23.7503C44.9525 23.7503 44.9525 23.7503 44.9525 23.7503ZM8.22023 6.42515L14.71 23.2985L1.73047 23.2985L8.22023 6.42515L8.22023 6.42515ZM8.22021 30.8141C4.70248 30.8141 1.7991 28.1333 1.44534 24.7076C1.44534 24.7076 14.995 24.7076 14.995 24.7076C14.6413 28.1333 11.7379 30.8141 8.22021 30.8141C8.22021 30.8141 8.22021 30.8141 8.22021 30.8141ZM22.5 1.40919C23.3548 1.40919 24.0502 2.10458 24.0502 2.95932C24.0502 3.81405 23.3548 4.50935 22.5 4.50935C21.6453 4.50935 20.9499 3.81396 20.9499 2.95923C20.9499 2.10449 21.6453 1.40919 22.5 1.40919C22.5 1.40919 22.5 1.40919 22.5 1.40919ZM31.5657 39.786C31.5657 40.2263 31.2075 40.5846 30.7672 40.5846C30.7672 40.5846 14.2327 40.5846 14.2327 40.5846C13.7924 40.5846 13.4342 40.2263 13.4342 39.786C13.4342 39.3457 13.7924 38.9874 14.2327 38.9874C14.2327 38.9874 30.7672 38.9874 30.7672 38.9874C31.2076 38.9874 31.5657 39.3457 31.5657 39.786C31.5657 39.786 31.5657 39.786 31.5657 39.786ZM21.7014 37.5783C21.7014 37.5783 21.7014 5.80819 21.7014 5.80819C21.9556 5.87956 22.2233 5.91858 22.5 5.91858C22.7767 5.91858 23.0443 5.87956 23.2986 5.80819C23.2986 5.80819 23.2986 37.5783 23.2986 37.5783L21.7014 37.5783L21.7014 37.5783ZM43.2695 23.2985L30.29 23.2985L36.7798 6.42515L43.2695 23.2985L43.2695 23.2985ZM36.7797 30.8141C33.262 30.8141 30.3586 28.1333 30.0049 24.7076C30.0049 24.7076 43.5545 24.7076 43.5545 24.7076C43.2009 28.1333 40.2974 30.8141 36.7797 30.8141C36.7797 30.8141 36.7797 30.8141 36.7797 30.8141Z" fill="#000000" transform="translate(0 1.503)" />
    </g>
    <g transform="translate(0 1)">
      <g transform="translate(6.45 0)">
        <path d="M23.5784 41.5666C23.5784 41.5666 2.22164 41.5666 2.22164 41.5666C1.00328 41.5666 0 40.4916 0 39.13C0 39.13 0 2.43664 0 2.43664C0 1.075 1.00336 0 2.22164 0C2.22164 0 23.5783 0 23.5783 0C24.7966 0 25.7999 1.075 25.7999 2.43664C25.7999 2.43664 25.7999 39.13 25.7999 39.13C25.8 40.4916 24.7966 41.5666 23.5784 41.5666C23.5784 41.5666 23.5784 41.5666 23.5784 41.5666Z" fill="#FFDD09" transform="translate(2.15 0.717)" />
        <path d="M1.43336 39.1299C1.43336 39.1299 1.43336 2.43664 1.43336 2.43664C1.43336 1.075 2.43672 0 3.655 0C3.655 0 2.43664 0 2.43664 0C1.075 0 0 1.075 0 2.43664C0 2.43664 0 39.13 0 39.13C0 40.4916 1.075 41.5666 2.43664 41.5666C2.43664 41.5666 3.655 41.5666 3.655 41.5666C2.43672 41.5666 1.43336 40.4916 1.43336 39.1299C1.43336 39.1299 1.43336 39.1299 1.43336 39.1299Z" fill="#FFFFFF" transform="translate(0.717 0.717)" />
        <path d="M1.21836 0C1.21836 0 0 0 0 0C1.21836 0 2.22164 1.075 2.22164 2.43664C2.22164 2.43664 2.22164 39.13 2.22164 39.13C2.22164 40.4916 1.21828 41.5666 0 41.5666C0 41.5666 1.21836 41.5666 1.21836 41.5666C2.58 41.5666 3.655 40.4916 3.655 39.13C3.655 39.13 3.655 2.43672 3.655 2.43672C3.65508 1.075 2.58008 0 1.21836 0C1.21836 0 1.21836 0 1.21836 0Z" fill="#FD9808" transform="translate(25.728 0.717)" />
        <g transform="translate(4.3 13.617)">
          <path d="M0 2.86664L11.4666 2.86664L11.4666 0L0 0L0 2.86664L0 2.86664Z" fill="#FCC309" transform="translate(0 22.933)" />
          <path d="M0 2.86664L4.3 2.86664L4.3 0L0 0L0 2.86664L0 2.86664Z" fill="#FCC309" transform="translate(0 17.2)" />
          <path d="M0 2.86664L4.3 2.86664L4.3 0L1.43051e-06 0L1.43051e-06 2.86664L0 2.86664Z" fill="#FCC309" transform="translate(7.883 17.2)" />
          <path d="M0 2.86664L4.3 2.86664L4.3 0L0 0L0 2.86664L0 2.86664Z" fill="#FCC309" transform="translate(15.767 17.2)" />
          <path d="M0 2.86664L4.3 2.86664L4.3 0L0 0L0 2.86664L0 2.86664Z" fill="#FCC309" transform="translate(15.767 22.933)" />
          <path d="M0 2.86664L4.3 2.86664L4.3 0L0 0L0 2.86664L0 2.86664Z" fill="#FCC309" transform="translate(15.767 11.467)" />
          <path d="M0 2.86664L4.3 2.86664L4.3 0L1.43051e-06 0L1.43051e-06 2.86664L0 2.86664Z" fill="#FCC309" transform="translate(7.883 11.467)" />
          <path d="M0 2.86664L4.3 2.86664L4.3 0L0 0L0 2.86664L0 2.86664Z" fill="#FCC309" transform="translate(0 11.467)" />
          <path d="M0 2.86664L4.3 2.86664L4.3 0L0 0L0 2.86664L0 2.86664Z" fill="#FCC309" transform="translate(0 5.733)" />
          <path d="M0 2.86664L4.3 2.86664L4.3 0L1.43051e-06 0L1.43051e-06 2.86664L0 2.86664Z" fill="#FCC309" transform="translate(7.883 5.733)" />
          <path d="M0 2.86664L4.3 2.86664L4.3 0L0 0L0 2.86664L0 2.86664Z" fill="#FCC309" transform="translate(15.767 5.733)" />
          <path d="M0 2.86664L4.3 2.86664L4.3 0L0 0L0 2.86664L0 2.86664Z" fill="#FCC309" transform="translate(15.767 0)" />
          <path d="M0 2.86664L4.3 2.86664L4.3 0L1.43051e-06 0L1.43051e-06 2.86664L0 2.86664Z" fill="#FCC309" transform="translate(7.883 0)" />
          <path d="M0 2.86664L4.3 2.86664L4.3 0L0 0L0 2.86664L0 2.86664Z" fill="#FCC309" />
        </g>
        <path d="M0 7.16664L21.5 7.16664L21.5 0L7.15256e-07 0L7.15256e-07 7.16664L0 7.16664Z" fill="#54C9FD" transform="translate(3.583 3.583)" />
        <path d="M0 7.16664L1.43336 7.16664L1.43336 0L0 0L0 7.16664L0 7.16664Z" fill="#33A9F8" transform="translate(25.083 3.583)" />
        <path d="M26.9466 43C26.9466 43 3.15336 43 3.15336 43C1.43336 43 0 41.5666 0 39.8466C0 39.8466 0 3.15336 0 3.15336C0 1.43336 1.43336 0 3.15336 0C3.15336 0 26.9467 0 26.9467 0C28.6667 0 30.1001 1.43336 30.1001 3.15336C30.1001 3.15336 30.1001 39.8467 30.1001 39.8467C30.1 41.5666 28.6666 43 26.9466 43C26.9466 43 26.9466 43 26.9466 43ZM3.15336 1.43336C2.22172 1.43336 1.43336 2.22172 1.43336 3.15336C1.43336 3.15336 1.43336 39.8467 1.43336 39.8467C1.43336 40.7784 2.22172 41.5667 3.15336 41.5667C3.15336 41.5667 26.9467 41.5667 26.9467 41.5667C27.8784 41.5667 28.6667 40.7784 28.6667 39.8467C28.6667 39.8467 28.6667 3.15336 28.6667 3.15336C28.6667 2.22172 27.8784 1.43336 26.9467 1.43336C26.9467 1.43336 3.15336 1.43336 3.15336 1.43336C3.15336 1.43336 3.15336 1.43336 3.15336 1.43336Z" fill="#000000" />
        <path d="M23.6499 8.59992C23.6499 8.59992 0.716639 8.59992 0.716639 8.59992C0.286638 8.59992 0 8.31328 0 7.88328C0 7.88328 0 0.716639 0 0.716639C0 0.286639 0.286639 0 0.716639 0C0.716639 0 23.65 0 23.65 0C24.08 0 24.3666 0.286638 24.3666 0.716639C24.3666 0.716639 24.3666 7.88328 24.3666 7.88328C24.3666 8.31328 24.0799 8.59992 23.6499 8.59992C23.6499 8.59992 23.6499 8.59992 23.6499 8.59992ZM1.43326 7.16663L22.9333 7.16663L22.9333 1.43326L1.43326 1.43326L1.43326 7.16663L1.43326 7.16663Z" fill="#000000" transform="translate(2.867 2.867)" />
        <path d="M12.1833 4.3C12.1833 4.3 0.716638 4.3 0.716638 4.3C0.286638 4.3 0 4.01336 0 3.58336C0 3.58336 0 0.71664 0 0.71664C0 0.28664 0.286639 0 0.716638 0C0.716638 0 12.1833 0 12.1833 0C12.6133 0 12.8999 0.28664 12.8999 0.71664C12.8999 0.71664 12.8999 3.58328 12.8999 3.58328C12.9 4.01328 12.6133 4.3 12.1833 4.3C12.1833 4.3 12.1833 4.3 12.1833 4.3ZM1.43326 2.86663L11.4666 2.86663L11.4666 1.43327L1.43326 1.43327L1.43326 2.86663L1.43326 2.86663Z" fill="#000000" transform="translate(3.583 35.833)" />
        <path d="M5.01664 4.29991C5.01664 4.29991 0.716638 4.29991 0.716638 4.29991C0.286638 4.29991 0 4.01328 0 3.58328C0 3.58328 0 0.716639 0 0.716639C0 0.286638 0.286639 0 0.716638 0C0.716638 0 5.01664 0 5.01664 0C5.44664 0 5.73328 0.286638 5.73328 0.716639C5.73328 0.716639 5.73328 3.58328 5.73328 3.58328C5.73328 4.01328 5.44664 4.29991 5.01664 4.29991C5.01664 4.29991 5.01664 4.29991 5.01664 4.29991ZM1.43326 2.86658L4.2999 2.86658L4.2999 1.43322L1.43326 1.43322L1.43326 2.86658L1.43326 2.86658Z" fill="#000000" transform="translate(3.583 30.1)" />
        <path d="M5.01664 4.29991C5.01664 4.29991 0.71664 4.29991 0.71664 4.29991C0.286639 4.29991 0 4.01328 0 3.58328C0 3.58328 0 0.716639 0 0.716639C0 0.286638 0.286638 0 0.71664 0C0.71664 0 5.01664 0 5.01664 0C5.44664 0 5.73328 0.286638 5.73328 0.716639C5.73328 0.716639 5.73328 3.58328 5.73328 3.58328C5.73328 4.01328 5.44664 4.29991 5.01664 4.29991C5.01664 4.29991 5.01664 4.29991 5.01664 4.29991ZM1.43326 2.86658L4.2999 2.86658L4.2999 1.43322L1.43326 1.43322L1.43326 2.86658L1.43326 2.86658Z" fill="#000000" transform="translate(11.467 30.1)" />
        <path d="M5.01664 4.29991C5.01664 4.29991 0.716639 4.29991 0.716639 4.29991C0.286638 4.29991 0 4.01328 0 3.58328C0 3.58328 0 0.716639 0 0.716639C0 0.286638 0.286638 0 0.716639 0C0.716639 0 5.01664 0 5.01664 0C5.44664 0 5.73328 0.286638 5.73328 0.716639C5.73328 0.716639 5.73328 3.58328 5.73328 3.58328C5.73337 4.01328 5.44664 4.29991 5.01664 4.29991C5.01664 4.29991 5.01664 4.29991 5.01664 4.29991ZM1.43336 2.86658L4.3 2.86658L4.3 1.43322L1.43336 1.43322L1.43336 2.86658L1.43336 2.86658Z" fill="#000000" transform="translate(19.35 30.1)" />
        <path d="M5.01664 4.3C5.01664 4.3 0.716639 4.3 0.716639 4.3C0.286638 4.3 0 4.01336 0 3.58336C0 3.58336 0 0.71664 0 0.71664C0 0.28664 0.286638 0 0.716639 0C0.716639 0 5.01664 0 5.01664 0C5.44664 0 5.73328 0.28664 5.73328 0.71664C5.73328 0.71664 5.73328 3.58328 5.73328 3.58328C5.73337 4.01328 5.44664 4.3 5.01664 4.3C5.01664 4.3 5.01664 4.3 5.01664 4.3ZM1.43336 2.86663L4.3 2.86663L4.3 1.43327L1.43336 1.43327L1.43336 2.86663L1.43336 2.86663Z" fill="#000000" transform="translate(19.35 35.833)" />
        <path d="M5.01664 4.29992C5.01664 4.29992 0.716639 4.29992 0.716639 4.29992C0.286638 4.29992 0 4.01328 0 3.58328C0 3.58328 0 0.716639 0 0.716639C0 0.286638 0.286638 0 0.716639 0C0.716639 0 5.01664 0 5.01664 0C5.44664 0 5.73328 0.286638 5.73328 0.716639C5.73328 0.716639 5.73328 3.58328 5.73328 3.58328C5.73337 4.01328 5.44664 4.29992 5.01664 4.29992C5.01664 4.29992 5.01664 4.29992 5.01664 4.29992ZM1.43336 2.86663L4.3 2.86663L4.3 1.43327L1.43336 1.43327L1.43336 2.86663L1.43336 2.86663Z" fill="#000000" transform="translate(19.35 24.367)" />
        <path d="M5.01664 4.29992C5.01664 4.29992 0.71664 4.29992 0.71664 4.29992C0.286639 4.29992 0 4.01328 0 3.58328C0 3.58328 0 0.716639 0 0.716639C0 0.286638 0.286638 0 0.71664 0C0.71664 0 5.01664 0 5.01664 0C5.44664 0 5.73328 0.286638 5.73328 0.716639C5.73328 0.716639 5.73328 3.58328 5.73328 3.58328C5.73328 4.01328 5.44664 4.29992 5.01664 4.29992C5.01664 4.29992 5.01664 4.29992 5.01664 4.29992ZM1.43326 2.86663L4.2999 2.86663L4.2999 1.43327L1.43326 1.43327L1.43326 2.86663L1.43326 2.86663Z" fill="#000000" transform="translate(11.467 24.367)" />
        <path d="M5.01664 4.29992C5.01664 4.29992 0.716638 4.29992 0.716638 4.29992C0.286638 4.29992 0 4.01328 0 3.58328C0 3.58328 0 0.716639 0 0.716639C0 0.286638 0.286639 0 0.716638 0C0.716638 0 5.01664 0 5.01664 0C5.44664 0 5.73328 0.286638 5.73328 0.716639C5.73328 0.716639 5.73328 3.58328 5.73328 3.58328C5.73328 4.01328 5.44664 4.29992 5.01664 4.29992C5.01664 4.29992 5.01664 4.29992 5.01664 4.29992ZM1.43326 2.86663L4.2999 2.86663L4.2999 1.43327L1.43326 1.43327L1.43326 2.86663L1.43326 2.86663Z" fill="#000000" transform="translate(3.583 24.367)" />
        <path d="M5.01664 4.3C5.01664 4.3 0.716638 4.3 0.716638 4.3C0.286638 4.3 0 4.01336 0 3.58336C0 3.58336 0 0.716639 0 0.716639C0 0.28664 0.286639 0 0.716638 0C0.716638 0 5.01664 0 5.01664 0C5.44664 0 5.73328 0.286638 5.73328 0.716639C5.73328 0.716639 5.73328 3.58328 5.73328 3.58328C5.73328 4.01328 5.44664 4.3 5.01664 4.3C5.01664 4.3 5.01664 4.3 5.01664 4.3ZM1.43326 2.86663L4.2999 2.86663L4.2999 1.43326L1.43326 1.43326L1.43326 2.86663L1.43326 2.86663Z" fill="#000000" transform="translate(3.583 18.633)" />
        <path d="M5.01664 4.3C5.01664 4.3 0.71664 4.3 0.71664 4.3C0.286639 4.3 0 4.01336 0 3.58336C0 3.58336 0 0.716639 0 0.716639C0 0.28664 0.286638 0 0.71664 0C0.71664 0 5.01664 0 5.01664 0C5.44664 0 5.73328 0.286638 5.73328 0.716639C5.73328 0.716639 5.73328 3.58328 5.73328 3.58328C5.73328 4.01328 5.44664 4.3 5.01664 4.3C5.01664 4.3 5.01664 4.3 5.01664 4.3ZM1.43326 2.86663L4.2999 2.86663L4.2999 1.43326L1.43326 1.43326L1.43326 2.86663L1.43326 2.86663Z" fill="#000000" transform="translate(11.467 18.633)" />
        <path d="M5.01664 4.3C5.01664 4.3 0.716639 4.3 0.716639 4.3C0.286638 4.3 0 4.01336 0 3.58336C0 3.58336 0 0.716639 0 0.716639C0 0.28664 0.286638 0 0.716639 0C0.716639 0 5.01664 0 5.01664 0C5.44664 0 5.73328 0.286638 5.73328 0.716639C5.73328 0.716639 5.73328 3.58328 5.73328 3.58328C5.73337 4.01328 5.44664 4.3 5.01664 4.3C5.01664 4.3 5.01664 4.3 5.01664 4.3ZM1.43336 2.86663L4.3 2.86663L4.3 1.43326L1.43336 1.43326L1.43336 2.86663L1.43336 2.86663Z" fill="#000000" transform="translate(19.35 18.633)" />
        <path d="M5.01664 4.29992C5.01664 4.29992 0.716639 4.29992 0.716639 4.29992C0.286638 4.29992 0 4.01328 0 3.58328C0 3.58328 0 0.71664 0 0.71664C0 0.286639 0.286638 0 0.716639 0C0.716639 0 5.01664 0 5.01664 0C5.44664 0 5.73328 0.286638 5.73328 0.71664C5.73328 0.71664 5.73328 3.58328 5.73328 3.58328C5.73337 4.01328 5.44664 4.29992 5.01664 4.29992C5.01664 4.29992 5.01664 4.29992 5.01664 4.29992ZM1.43336 2.86658L4.3 2.86658L4.3 1.43322L1.43336 1.43322L1.43336 2.86658L1.43336 2.86658Z" fill="#000000" transform="translate(19.35 12.9)" />
        <path d="M5.01664 4.29992C5.01664 4.29992 0.71664 4.29992 0.71664 4.29992C0.286639 4.29992 0 4.01328 0 3.58328C0 3.58328 0 0.71664 0 0.71664C0 0.286639 0.286638 0 0.71664 0C0.71664 0 5.01664 0 5.01664 0C5.44664 0 5.73328 0.286638 5.73328 0.71664C5.73328 0.71664 5.73328 3.58328 5.73328 3.58328C5.73328 4.01328 5.44664 4.29992 5.01664 4.29992C5.01664 4.29992 5.01664 4.29992 5.01664 4.29992ZM1.43326 2.86658L4.2999 2.86658L4.2999 1.43322L1.43326 1.43322L1.43326 2.86658L1.43326 2.86658Z" fill="#000000" transform="translate(11.467 12.9)" />
        <path d="M5.01664 4.29992C5.01664 4.29992 0.716638 4.29992 0.716638 4.29992C0.286638 4.29992 0 4.01328 0 3.58328C0 3.58328 0 0.71664 0 0.71664C0 0.286639 0.286639 0 0.716638 0C0.716638 0 5.01664 0 5.01664 0C5.44664 0 5.73328 0.286638 5.73328 0.71664C5.73328 0.71664 5.73328 3.58328 5.73328 3.58328C5.73328 4.01328 5.44664 4.29992 5.01664 4.29992C5.01664 4.29992 5.01664 4.29992 5.01664 4.29992ZM1.43326 2.86658L4.2999 2.86658L4.2999 1.43322L1.43326 1.43322L1.43326 2.86658L1.43326 2.86658Z" fill="#000000" transform="translate(3.583 12.9)" />
        <path d="M15.05 1.43328C15.05 1.43328 13.6166 1.43328 13.6166 1.43328C13.1866 1.43328 12.9 1.14664 12.9 0.716638C12.9 0.286639 13.1866 0 13.6166 0C13.6166 0 15.05 0 15.05 0C15.48 0 15.7666 0.286639 15.7666 0.716638C15.7666 1.14664 15.48 1.43328 15.05 1.43328C15.05 1.43328 15.05 1.43328 15.05 1.43328ZM10.75 1.43328C10.75 1.43328 9.31665 1.43328 9.31665 1.43328C8.88665 1.43328 8.60001 1.14664 8.60001 0.716638C8.60001 0.286639 8.88665 0 9.31665 0C9.31665 0 10.75 0 10.75 0C11.18 0 11.4666 0.286639 11.4666 0.716638C11.4666 1.14664 11.18 1.43328 10.75 1.43328C10.75 1.43328 10.75 1.43328 10.75 1.43328ZM6.45003 1.43328C6.45003 1.43328 5.01667 1.43328 5.01667 1.43328C4.58667 1.43328 4.30003 1.14664 4.30003 0.716638C4.30003 0.286639 4.58667 0 5.01667 0C5.01667 0 6.45003 0 6.45003 0C6.88003 0 7.16667 0.286639 7.16667 0.716638C7.16667 1.14664 6.88003 1.43328 6.45003 1.43328C6.45003 1.43328 6.45003 1.43328 6.45003 1.43328ZM2.15 1.43328C2.15 1.43328 0.716639 1.43328 0.716639 1.43328C0.28664 1.43328 0 1.14664 0 0.716638C0 0.286639 0.286638 0 0.716639 0C0.716639 0 2.15 0 2.15 0C2.58 0 2.86664 0.286639 2.86664 0.716638C2.86664 1.14664 2.58 1.43328 2.15 1.43328C2.15 1.43328 2.15 1.43328 2.15 1.43328Z" fill="#000000" transform="translate(7.167 6.45)" />
      </g>
    </g>
  </g>
</svg>